<?xml version="1.0" encoding="UTF-8" standalone="no"?>
<svg
   xmlns:dc="http://purl.org/dc/elements/1.1/"
   xmlns:cc="http://creativecommons.org/ns#"
   xmlns:rdf="http://www.w3.org/1999/02/22-rdf-syntax-ns#"
   xmlns:svg="http://www.w3.org/2000/svg"
   xmlns="http://www.w3.org/2000/svg"
   xmlns:xlink="http://www.w3.org/1999/xlink"
   xmlns:sodipodi="http://sodipodi.sourceforge.net/DTD/sodipodi-0.dtd"
   xmlns:inkscape="http://www.inkscape.org/namespaces/inkscape"
   inkscape:version="1.0 (4035a4fb49, 2020-05-01)"
   sodipodi:docname="Plataformas.svg"
   id="svg81"
   xml:space="preserve"
   style="enable-background:new 0 0 5121 720;"
   viewBox="0 0 5121 720"
   y="0px"
   x="0px"
   version="1.1"><metadata
   id="metadata87"><rdf:RDF><cc:Work
       rdf:about=""><dc:format>image/svg+xml</dc:format><dc:type
         rdf:resource="http://purl.org/dc/dcmitype/StillImage" /></cc:Work></rdf:RDF></metadata><defs
   id="defs85" /><sodipodi:namedview
   inkscape:current-layer="Capa_1"
   inkscape:window-maximized="0"
   inkscape:window-y="165"
   inkscape:window-x="1575"
   inkscape:cy="234.11126"
   inkscape:cx="1916.1524"
   inkscape:zoom="0.73624162"
   showgrid="false"
   id="namedview83"
   inkscape:window-height="480"
   inkscape:window-width="933"
   inkscape:pageshadow="2"
   inkscape:pageopacity="0"
   guidetolerance="10"
   gridtolerance="10"
   objecttolerance="10"
   borderopacity="1"
   bordercolor="#666666"
   pagecolor="#ffffff" />
<style
   id="style2"
   type="text/css">
	.st0{display:none;}
	.st1{fill:#1800FF;}
	.st2{display:inline;fill:#FF0000;}
</style>
<g
   class="st0"
   id="Capa_3">
	<image
   sodipodi:absref="/home/manu/Baixades/Telegram Desktop/EXROLheU0AIsk7x.png"
   xlink:href="../../../../../../../../../../Baixades/Telegram%20Desktop/EXROLheU0AIsk7x.png"
   style="display:inline;overflow:visible"
   width="5121"
   height="720"
   id="XMLID_2_">
	</image>
</g>
<g
   id="Capa_1">
	<rect
   style="stroke-width:1"
   x="0"
   height="510.20001"
   width="1929.8"
   class="st1"
   y="212.8"
   id="XMLID_1_" />
	<rect
   height="95.300003"
   width="773.29999"
   class="st1"
   y="131.7"
   x="1108.3"
   id="XMLID_5_" />
	<path
   sodipodi:nodetypes="cccccc"
   class="st1"
   d="M 2069.1,321 1881.7,131.7 1879.9697,723 H 2056 h 13 z"
   style="fill:#1800ff"
   id="XMLID_7_" />
	<polygon
   points="2228,723 2069,723 2069.1,321 2228,321  "
   class="st1"
   id="XMLID_6_" />
	<polygon
   points="2574,321 2228,321 2228,348 2629,348 2629,321  "
   class="st1"
   id="XMLID_9_" />
	<polygon
   points="2364,694 2389,694 2389,720 2228,723 2228,560  "
   class="st1"
   id="XMLID_10_" />
	<rect
   height="30"
   width="160"
   class="st1"
   y="693"
   x="2469"
   id="XMLID_8_" />
	<rect
   height="30"
   width="80"
   class="st1"
   y="693"
   x="2710"
   id="XMLID_11_" />
	<rect
   height="30"
   width="80"
   class="st1"
   y="693"
   x="2870"
   id="XMLID_12_" />
	<rect
   height="30"
   width="79"
   class="st1"
   y="693"
   x="3030"
   id="XMLID_13_" />
	<rect
   height="30"
   width="80"
   class="st1"
   y="693"
   x="3188"
   id="XMLID_14_" />
	<polygon
   points="3350,693 3428,693 3428,723  "
   class="st1"
   id="XMLID_15_" />
	<polygon
   points="3350,723 3350,693 3428,723  "
   class="st1"
   id="XMLID_17_" />
	<rect
   height="30"
   width="80"
   class="st1"
   y="693"
   x="3510"
   id="XMLID_16_" />
	<polygon
   points="3669,693 3669,723 4204,723 4204,266 4336,266 4336,106 4176,106 4176,693 4176,613    4150,613 4150,693  "
   class="st1"
   id="XMLID_18_" />
	<rect
   height="28"
   width="80"
   class="st1"
   y="533"
   x="4044"
   id="XMLID_19_" />
	<rect
   height="27"
   width="80"
   class="st1"
   y="372"
   x="4044"
   id="XMLID_20_" />
	<rect
   height="30"
   width="80"
   class="st1"
   y="212"
   x="4044"
   id="XMLID_21_" />
	<rect
   height="53"
   width="33"
   class="st1"
   y="293"
   x="4151"
   id="XMLID_22_" />
	<polygon
   points="3938,533 4017,533 4017,454 3992,454 3992,160 4044,160 4044,131 3991,131 3991,0    3938,0 3938,506 3616,506 3616,480 3536,480 3536,506 3268,506 3268,479 3188,479 3188,533  "
   class="st1"
   id="XMLID_24_" />
	<path
   d="M2338,560v-27h24l134.3-133h25.7l81,80h26v27h241v-27h80v27h238v26h-793l-28.7,27   C2366.3,560,2335.3,557.3,2338,560z"
   class="st1"
   id="XMLID_23_" />
	<rect
   height="26.9"
   width="79.3"
   class="st1"
   y="212.8"
   x="2123"
   id="XMLID_25_" />
	<rect
   height="26.5"
   width="80.5"
   class="st1"
   y="186.3"
   x="2228"
   id="XMLID_26_" />
	<rect
   height="26.9"
   width="77.2"
   class="st1"
   y="212.8"
   x="2337.8"
   id="XMLID_27_" />
	<rect
   height="32"
   width="52.7"
   class="st1"
   y="293"
   x="2576.3"
   id="XMLID_28_" />
	<rect
   height="26.5"
   width="52"
   class="st1"
   y="266.5"
   x="2657"
   id="XMLID_29_" />
	<rect
   height="26.5"
   width="52.7"
   class="st1"
   y="266.5"
   x="2762.9"
   id="XMLID_30_" />
	<rect
   height="26.5"
   width="53.3"
   class="st1"
   y="266.5"
   x="2868.3"
   id="XMLID_31_" />
	<rect
   height="26.5"
   width="55.3"
   class="st1"
   y="266.5"
   x="2975"
   id="XMLID_32_" />
	<polygon
   points="3082,293 3082,348 3349,348 3349,321 3135,321 3135,293  "
   class="st1"
   id="XMLID_33_" />
	<polygon
   points="3483,321 3722,321 3722,132 3802,132 3802,424 3778,424 3778,348 3483,348  "
   class="st1"
   id="XMLID_34_" />
	<rect
   height="26"
   width="54"
   class="st1"
   y="267"
   x="3242"
   id="XMLID_35_" />
	<rect
   height="27"
   width="54"
   class="st1"
   y="240"
   x="3322"
   id="XMLID_36_" />
	<rect
   height="27"
   width="53"
   class="st1"
   y="213"
   x="3403"
   id="XMLID_37_" />
	<rect
   height="26"
   width="53"
   class="st1"
   y="187"
   x="3483"
   id="XMLID_38_" />
	<rect
   height="28"
   width="53"
   class="st1"
   y="159"
   x="3563"
   id="XMLID_39_" />
	<rect
   height="27"
   width="54"
   class="st1"
   y="132"
   x="3642"
   id="XMLID_40_" />
	<polygon
   points="4604,267 4604,106 4656,106 4870,319.6 4870,346 4781,266.5  "
   class="st1"
   id="XMLID_41_" />
	<rect
   height="28"
   width="268"
   class="st1"
   y="239"
   x="4336"
   id="XMLID_42_" />
</g>
<g
   class="st0"
   id="Capa_2">
	<rect
   height="28"
   width="399.9"
   class="st2"
   y="293"
   x="2069.1"
   id="XMLID_43_" />
	<rect
   height="28"
   width="453"
   class="st2"
   y="293"
   x="2629"
   id="XMLID_44_" />
	<rect
   height="27.5"
   width="54"
   class="st2"
   y="293"
   x="3242"
   id="XMLID_45_" />
	<rect
   height="52.5"
   width="80"
   class="st2"
   y="267"
   x="3296"
   id="XMLID_46_" />
	<rect
   height="79.5"
   width="107"
   class="st2"
   y="240"
   x="3376"
   id="XMLID_47_" />
	<rect
   height="108"
   width="266"
   class="st2"
   y="213"
   x="3456"
   id="XMLID_48_" />
	<rect
   height="29.3"
   width="186"
   class="st2"
   y="187"
   x="3536"
   id="XMLID_49_" />
	<rect
   height="33.3"
   width="106"
   class="st2"
   y="159"
   x="3616"
   id="XMLID_50_" />
	<rect
   height="28.5"
   width="133"
   class="st2"
   y="319.5"
   x="3350"
   id="XMLID_51_" />
	<rect
   height="292"
   width="27.7"
   class="st2"
   y="132"
   x="3802"
   id="XMLID_52_" />
	<rect
   height="377"
   width="26.3"
   class="st2"
   y="132"
   x="3911.7"
   id="XMLID_53_" />
	<rect
   height="26"
   width="53"
   class="st2"
   y="480"
   x="3616"
   id="XMLID_54_" />
	<rect
   height="26"
   width="53"
   class="st2"
   y="480"
   x="3483"
   id="XMLID_55_" />
	<rect
   height="26"
   width="54"
   class="st2"
   y="480"
   x="3268"
   id="XMLID_56_" />
	<rect
   height="28"
   width="52.3"
   class="st2"
   y="479"
   x="3135.7"
   id="XMLID_57_" />
	<rect
   height="27"
   width="52.7"
   class="st2"
   y="480"
   x="2950"
   id="XMLID_58_" />
	<rect
   height="29"
   width="54.3"
   class="st2"
   y="480"
   x="2815.7"
   id="XMLID_59_" />
	<rect
   height="27"
   width="80"
   class="st2"
   y="480"
   x="2629"
   id="XMLID_60_" />
	<rect
   height="29"
   width="80"
   class="st2"
   y="694"
   x="2389"
   id="XMLID_61_" />
	<rect
   height="30"
   width="81"
   class="st2"
   y="693"
   x="2629"
   id="XMLID_62_" />
	<rect
   height="30"
   width="80"
   class="st2"
   y="693"
   x="2790"
   id="XMLID_63_" />
	<rect
   height="30"
   width="80"
   class="st2"
   y="693"
   x="2950"
   id="XMLID_64_" />
	<rect
   height="30"
   width="79"
   class="st2"
   y="693"
   x="3109"
   id="XMLID_65_" />
	<rect
   height="30"
   width="82"
   class="st2"
   y="693"
   x="3268"
   id="XMLID_66_" />
	<rect
   height="30"
   width="82"
   class="st2"
   y="693"
   x="3428"
   id="XMLID_67_" />
	<rect
   height="30"
   width="79"
   class="st2"
   y="693"
   x="3590"
   id="XMLID_68_" />
	<rect
   height="25.3"
   width="29.3"
   class="st2"
   y="667.7"
   x="3749.7"
   id="XMLID_69_" />
	<rect
   height="52.7"
   width="26"
   class="st2"
   y="640.3"
   x="3857.7"
   id="XMLID_70_" />
	<rect
   height="25.3"
   width="27.3"
   class="st2"
   y="667.7"
   x="3963.7"
   id="XMLID_71_" />
	<rect
   height="55"
   width="27.3"
   class="st2"
   y="560"
   x="4070.3"
   id="XMLID_72_" />
	<rect
   height="80"
   width="27.3"
   class="st2"
   y="399"
   x="4070.3"
   id="XMLID_73_" />
	<rect
   height="77.5"
   width="27.3"
   class="st2"
   y="242"
   x="4070.3"
   id="XMLID_74_" />
	<rect
   height="79.3"
   width="25"
   class="st2"
   y="79.7"
   x="4151"
   id="XMLID_75_" />
	<rect
   height="80"
   width="268"
   class="st2"
   y="159"
   x="4336"
   id="XMLID_76_" />
</g>
</svg>
