<?xml version="1.0" encoding="utf-8"?>
<!-- Generator: Adobe Illustrator 19.0.0, SVG Export Plug-In . SVG Version: 6.00 Build 0)  -->
<svg version="1.1" xmlns="http://www.w3.org/2000/svg" xmlns:xlink="http://www.w3.org/1999/xlink" x="0px" y="0px"
	 viewBox="0 0 5121 800" style="enable-background:new 0 0 5121 800;" xml:space="preserve">
<style type="text/css">
	.st0{display:none;}
	.st1{display:inline;fill:#1800FF;}
	.st2{display:inline;}
	.st3{fill:#1800FF;}
	.st4{fill:#FF0000;}
</style>
<g id="Capa_3" class="st0">
	<image style="display:inline;overflow:visible;" width="5121" height="720" id="XMLID_2_" xlink:href="EXROLheU0AIsk7x.png" >
	</image>
</g>
<g id="Capa_1" class="st0">
	<rect id="XMLID_164_" y="212.8" class="st1" width="1929.8" height="510.2"/>
	<polygon id="XMLID_163_" class="st1" points="2069.1,321 1881.7,131.7 1891,723 2056,723 2069,723 	"/>
	<polygon id="XMLID_162_" class="st1" points="3350,723 2025.8,723 2026.5,321 3350,321 	"/>
	<polygon id="XMLID_161_" class="st1" points="2574,321 2228,321 2228,348 2629,348 2629,321 	"/>
	<polygon id="XMLID_160_" class="st1" points="3486,693 3529,693 3529,719 3350,722 3350,559 	"/>
	<polygon id="XMLID_154_" class="st1" points="3350,693 3428,693 3428,723 	"/>
	<polygon id="XMLID_153_" class="st1" points="3350,723 3350,693 3428,723 	"/>
	<rect id="XMLID_152_" x="3610" y="693" class="st1" width="80" height="30"/>
	<polyline id="XMLID_5_" class="st1" points="4328,693 4328,723 4384,723 4384,266 4516,266 4516,106 4356,106 4356,693 4356,613 
		4330,613 4330,693 	"/>
	<rect id="XMLID_150_" x="4224" y="533" class="st1" width="80" height="28"/>
	<rect id="XMLID_149_" x="4224" y="372" class="st1" width="80" height="27"/>
	<rect id="XMLID_148_" x="4224" y="212" class="st1" width="80" height="30"/>
	<rect id="XMLID_147_" x="4331" y="293" class="st1" width="33" height="53"/>
	<polyline id="XMLID_146_" class="st1" points="3938,533 4197,533 4197,454 4172,454 4172,160 4224,160 4224,131 4171,131 4171,0 
		3938,0 3938,506 	"/>
	<path id="XMLID_1_" class="st1" d="M3567,562l-28.7,27c0,0-31-2.7-28.3,0v-27h24l134.3-133h25.7l81,80h167v24h-345L3567,562z"/>
	<rect id="XMLID_144_" x="2123" y="212.8" class="st1" width="79.3" height="26.9"/>
	<rect id="XMLID_143_" x="2228" y="186.3" class="st1" width="80.5" height="26.5"/>
	<rect id="XMLID_142_" x="2337.8" y="212.8" class="st1" width="77.2" height="26.9"/>
	<rect id="XMLID_141_" x="2576.3" y="293" class="st1" width="52.7" height="32"/>
	<rect id="XMLID_140_" x="2657" y="266.5" class="st1" width="52" height="26.5"/>
	<rect id="XMLID_139_" x="2762.9" y="266.5" class="st1" width="52.7" height="26.5"/>
	<rect id="XMLID_138_" x="2868.3" y="266.5" class="st1" width="53.3" height="26.5"/>
	<rect id="XMLID_137_" x="2975" y="266.5" class="st1" width="55.3" height="26.5"/>
	<polygon id="XMLID_136_" class="st1" points="3082,293 3082,348 3483,348 3483,321 3135,321 3135,293 	"/>
	<polygon id="XMLID_135_" class="st1" points="3483,321 3722,321 3722,132 3802,132 3802,424 3778,424 3778,348 3483,348 	"/>
	<rect id="XMLID_134_" x="3242" y="267" class="st1" width="54" height="26"/>
	<rect id="XMLID_133_" x="3322" y="240" class="st1" width="54" height="27"/>
	<rect id="XMLID_132_" x="3403" y="213" class="st1" width="53" height="27"/>
	<rect id="XMLID_131_" x="3483" y="187" class="st1" width="53" height="26"/>
	<rect id="XMLID_130_" x="3563" y="159" class="st1" width="53" height="28"/>
	<rect id="XMLID_129_" x="3642" y="132" class="st1" width="54" height="27"/>
	<polygon id="XMLID_128_" class="st1" points="4784,267 4784,106 4836,106 5050,319.6 5050,346 4961,266.5 	"/>
	<rect id="XMLID_127_" x="4516" y="239" class="st1" width="268" height="28"/>
	<polygon id="XMLID_126_" class="st1" points="1108,212 1108,132 1480,132 1480,216 	"/>
	<rect id="XMLID_125_" x="1563" y="132" class="st1" width="320" height="84"/>
	<rect id="XMLID_3_" x="3770" y="692" class="st1" width="80" height="30"/>
	<rect id="XMLID_4_" x="3930" y="692" class="st1" width="80" height="30"/>
	<rect id="XMLID_6_" x="4088" y="692" class="st1" width="80" height="30"/>
	<rect id="XMLID_7_" x="4250" y="692" class="st1" width="80" height="30"/>
</g>
<g id="Capa_4" class="st0">
	<g id="XMLID_67_" class="st2">
		<rect id="XMLID_61_" y="212.8" class="st3" width="1929.8" height="510.2"/>
		<polygon id="XMLID_60_" class="st3" points="2069.1,321 1881.7,131.7 1891,723 2056,723 2069,723 		"/>
		<polygon id="XMLID_59_" class="st3" points="3350,723 2025.8,723 2026.5,321 3350,321 		"/>
		<polygon id="XMLID_58_" class="st3" points="2574,321 2228,321 2228,348 2629,348 2629,321 		"/>
		<polygon id="XMLID_57_" class="st3" points="3486,693 3529,693 3529,719 3350,722 3350,559 		"/>
		<polygon id="XMLID_56_" class="st3" points="3350,693 3428,693 3428,723 		"/>
		<polygon id="XMLID_55_" class="st3" points="3350,723 3350,693 3428,723 		"/>
		<rect id="XMLID_54_" x="3610" y="693" class="st3" width="80" height="30"/>
		<polyline id="XMLID_51_" class="st3" points="4328,693 4328,723 4384,723 4384,266 4516,266 4516,106 4356,106 4356,693 4356,613 
			4330,613 4330,693 		"/>
		<rect id="XMLID_42_" x="4224" y="533" class="st3" width="80" height="28"/>
		<rect id="XMLID_41_" x="4224" y="372" class="st3" width="80" height="27"/>
		<rect id="XMLID_40_" x="4224" y="212" class="st3" width="80" height="30"/>
		<rect id="XMLID_39_" x="4331" y="293" class="st3" width="33" height="53"/>
		<polyline id="XMLID_38_" class="st3" points="3938,533 4197,533 4197,454 4172,454 4172,160 4224,160 4224,131 4171,131 4171,0 
			3938,0 3938,506 		"/>
		<path id="XMLID_37_" class="st3" d="M3567,562l-28.7,27c0,0-31-2.7-28.3,0v-27h24l134.3-133h25.7l81,80h167v24h-345L3567,562z"/>
		<rect id="XMLID_36_" x="2123" y="212.8" class="st3" width="79.3" height="26.9"/>
		<rect id="XMLID_35_" x="2228" y="186.3" class="st3" width="80.5" height="26.5"/>
		<rect id="XMLID_34_" x="2337.8" y="212.8" class="st3" width="77.2" height="26.9"/>
		<rect id="XMLID_33_" x="2576.3" y="293" class="st3" width="52.7" height="32"/>
		<rect id="XMLID_32_" x="2657" y="266.5" class="st3" width="52" height="26.5"/>
		<rect id="XMLID_31_" x="2762.9" y="266.5" class="st3" width="52.7" height="26.5"/>
		<rect id="XMLID_30_" x="2868.3" y="266.5" class="st3" width="53.3" height="26.5"/>
		<rect id="XMLID_29_" x="2975" y="266.5" class="st3" width="55.3" height="26.5"/>
		<polygon id="XMLID_28_" class="st3" points="3082,293 3082,348 3483,348 3483,321 3135,321 3135,293 		"/>
		<polygon id="XMLID_27_" class="st3" points="3483,321 3722,321 3722,132 3802,132 3802,424 3778,424 3778,348 3483,348 		"/>
		<rect id="XMLID_26_" x="3242" y="267" class="st3" width="54" height="26"/>
		<rect id="XMLID_25_" x="3322" y="240" class="st3" width="54" height="27"/>
		<rect id="XMLID_24_" x="3403" y="213" class="st3" width="53" height="27"/>
		<rect id="XMLID_23_" x="3483" y="187" class="st3" width="53" height="26"/>
		<rect id="XMLID_22_" x="3563" y="159" class="st3" width="53" height="28"/>
		<rect id="XMLID_21_" x="3642" y="132" class="st3" width="54" height="27"/>
		<polygon id="XMLID_20_" class="st3" points="4784,267 4784,106 4836,106 5050,319.6 5050,346 4961,266.5 		"/>
		<rect id="XMLID_19_" x="4516" y="239" class="st3" width="268" height="28"/>
		<polygon id="XMLID_18_" class="st3" points="1108,212 1108,132 1480,132 1480,216 		"/>
		<rect id="XMLID_17_" x="1563" y="132" class="st3" width="320" height="84"/>
		<rect id="XMLID_16_" x="3770" y="692" class="st3" width="80" height="30"/>
		<rect id="XMLID_15_" x="3930" y="692" class="st3" width="80" height="30"/>
		<rect id="XMLID_9_" x="4088" y="692" class="st3" width="80" height="30"/>
		<rect id="XMLID_8_" x="4250" y="692" class="st3" width="80" height="30"/>
	</g>
</g>
<g id="Capa_2">
	<rect id="XMLID_43_" x="2069.1" y="293" class="st4" width="399.9" height="28"/>
	<rect id="XMLID_44_" x="2629" y="293" class="st4" width="453" height="28"/>
	<rect id="XMLID_45_" x="3246" y="297" class="st4" width="54" height="27.5"/>
	<rect id="XMLID_46_" x="3300" y="271" class="st4" width="80" height="52.5"/>
	<rect id="XMLID_47_" x="3380" y="244" class="st4" width="107" height="79.5"/>
	<rect id="XMLID_48_" x="3460" y="217" class="st4" width="266" height="108"/>
	<rect id="XMLID_49_" x="3540" y="191" class="st4" width="186" height="29.3"/>
	<rect id="XMLID_50_" x="3620" y="163" class="st4" width="106" height="33.3"/>
	<rect id="XMLID_52_" x="3802" y="132" class="st4" width="27.7" height="292"/>
	<rect id="XMLID_53_" x="3911.7" y="132" class="st4" width="26.3" height="377"/>
	<rect id="XMLID_62_" x="3529" y="699" class="st4" width="81" height="30"/>
	<rect id="XMLID_63_" x="3690" y="699" class="st4" width="80" height="30"/>
	<rect id="XMLID_64_" x="3850" y="699" class="st4" width="80" height="30"/>
	<rect id="XMLID_65_" x="4009" y="699" class="st4" width="79" height="30"/>
	<rect id="XMLID_66_" x="4168" y="699" class="st4" width="82" height="30"/>
	<rect id="XMLID_14_" x="4250.3" y="560" class="st4" width="27.3" height="55"/>
	<rect id="XMLID_13_" x="4250.3" y="399" class="st4" width="27.3" height="80"/>
	<rect id="XMLID_12_" x="4250.3" y="242" class="st4" width="27.3" height="77.5"/>
	<rect id="XMLID_11_" x="4331" y="79.7" class="st4" width="25" height="79.3"/>
	<rect id="XMLID_10_" x="4516" y="159" class="st4" width="268" height="80"/>
	<rect id="XMLID_102_" x="1480" y="187" class="st4" width="83" height="29"/>
</g>
</svg>
