<?xml version="1.0" encoding="utf-8"?>
<!-- Generator: Adobe Illustrator 19.0.0, SVG Export Plug-In . SVG Version: 6.00 Build 0)  -->
<svg version="1.1" xmlns="http://www.w3.org/2000/svg" xmlns:xlink="http://www.w3.org/1999/xlink" x="0px" y="0px"
	 viewBox="0 0 5121 720" style="enable-background:new 0 0 5121 720;" xml:space="preserve">
<style type="text/css">
	.st0{display:none;}
	.st1{display:inline;fill:#1800FF;}
	.st2{fill:#FF0000;}
</style>
<g id="Capa_3" class="st0">
	<image style="display:inline;overflow:visible;" width="5121" height="720" id="XMLID_2_" xlink:href="EXROLheU0AIsk7x.png" >
	</image>
</g>
<g id="Capa_1" class="st0">
	<rect id="XMLID_1_" y="212.8" class="st1" width="1929.8" height="510.2"/>
	<rect id="XMLID_5_" x="1108.3" y="131.7" class="st1" width="773.3" height="95.3"/>
	<polygon id="XMLID_7_" class="st1" points="2069.1,321 1881.7,131.7 1891,723 2056,723 2069,723 	"/>
	<polygon id="XMLID_6_" class="st1" points="2228,723 2069,723 2069.1,321 2228,321 	"/>
	<polygon id="XMLID_9_" class="st1" points="2574,321 2228,321 2228,348 2629,348 2629,321 	"/>
	<polygon id="XMLID_10_" class="st1" points="2364,694 2389,694 2389,720 2228,723 2228,560 	"/>
	<rect id="XMLID_8_" x="2469" y="693" class="st1" width="160" height="30"/>
	<rect id="XMLID_11_" x="2710" y="693" class="st1" width="80" height="30"/>
	<rect id="XMLID_12_" x="2870" y="693" class="st1" width="80" height="30"/>
	<rect id="XMLID_13_" x="3030" y="693" class="st1" width="79" height="30"/>
	<rect id="XMLID_14_" x="3188" y="693" class="st1" width="80" height="30"/>
	<polygon id="XMLID_15_" class="st1" points="3350,693 3428,693 3428,723 	"/>
	<polygon id="XMLID_17_" class="st1" points="3350,723 3350,693 3428,723 	"/>
	<rect id="XMLID_16_" x="3510" y="693" class="st1" width="80" height="30"/>
	<polygon id="XMLID_18_" class="st1" points="3669,693 3669,723 4204,723 4204,266 4336,266 4336,106 4176,106 4176,693 4176,613 
		4150,613 4150,693 	"/>
	<rect id="XMLID_19_" x="4044" y="533" class="st1" width="80" height="28"/>
	<rect id="XMLID_20_" x="4044" y="372" class="st1" width="80" height="27"/>
	<rect id="XMLID_21_" x="4044" y="212" class="st1" width="80" height="30"/>
	<rect id="XMLID_22_" x="4151" y="293" class="st1" width="33" height="53"/>
	<polygon id="XMLID_24_" class="st1" points="3938,533 4017,533 4017,454 3992,454 3992,160 4044,160 4044,131 3991,131 3991,0 
		3938,0 3938,506 3616,506 3616,480 3536,480 3536,506 3268,506 3268,479 3188,479 3188,533 	"/>
	<path id="XMLID_23_" class="st1" d="M2338,560v-27h24l134.3-133h25.7l81,80h26v27h241v-27h80v27h238v26h-793l-28.7,27
		C2366.3,560,2335.3,557.3,2338,560z"/>
	<rect id="XMLID_25_" x="2123" y="212.8" class="st1" width="79.3" height="26.9"/>
	<rect id="XMLID_26_" x="2228" y="186.3" class="st1" width="80.5" height="26.5"/>
	<rect id="XMLID_27_" x="2337.8" y="212.8" class="st1" width="77.2" height="26.9"/>
	<rect id="XMLID_28_" x="2576.3" y="293" class="st1" width="52.7" height="32"/>
	<rect id="XMLID_29_" x="2657" y="266.5" class="st1" width="52" height="26.5"/>
	<rect id="XMLID_30_" x="2762.9" y="266.5" class="st1" width="52.7" height="26.5"/>
	<rect id="XMLID_31_" x="2868.3" y="266.5" class="st1" width="53.3" height="26.5"/>
	<rect id="XMLID_32_" x="2975" y="266.5" class="st1" width="55.3" height="26.5"/>
	<polygon id="XMLID_33_" class="st1" points="3082,293 3082,348 3349,348 3349,321 3135,321 3135,293 	"/>
	<polygon id="XMLID_34_" class="st1" points="3483,321 3722,321 3722,132 3802,132 3802,424 3778,424 3778,348 3483,348 	"/>
	<rect id="XMLID_35_" x="3242" y="267" class="st1" width="54" height="26"/>
	<rect id="XMLID_36_" x="3322" y="240" class="st1" width="54" height="27"/>
	<rect id="XMLID_37_" x="3403" y="213" class="st1" width="53" height="27"/>
	<rect id="XMLID_38_" x="3483" y="187" class="st1" width="53" height="26"/>
	<rect id="XMLID_39_" x="3563" y="159" class="st1" width="53" height="28"/>
	<rect id="XMLID_40_" x="3642" y="132" class="st1" width="54" height="27"/>
	<polygon id="XMLID_41_" class="st1" points="4604,267 4604,106 4656,106 4870,319.6 4870,346 4781,266.5 	"/>
	<rect id="XMLID_42_" x="4336" y="239" class="st1" width="268" height="28"/>
</g>
<g id="Capa_2">
	<rect id="XMLID_43_" x="2069.1" y="293" class="st2" width="399.9" height="28"/>
	<rect id="XMLID_44_" x="2629" y="293" class="st2" width="453" height="28"/>
	<rect id="XMLID_45_" x="3242" y="293" class="st2" width="54" height="27.5"/>
	<rect id="XMLID_46_" x="3296" y="267" class="st2" width="80" height="52.5"/>
	<rect id="XMLID_47_" x="3376" y="240" class="st2" width="107" height="79.5"/>
	<rect id="XMLID_48_" x="3456" y="213" class="st2" width="266" height="108"/>
	<rect id="XMLID_49_" x="3536" y="187" class="st2" width="186" height="29.3"/>
	<rect id="XMLID_50_" x="3616" y="159" class="st2" width="106" height="33.3"/>
	<rect id="XMLID_51_" x="3350" y="319.5" class="st2" width="133" height="28.5"/>
	<rect id="XMLID_52_" x="3802" y="132" class="st2" width="27.7" height="292"/>
	<rect id="XMLID_53_" x="3911.7" y="132" class="st2" width="26.3" height="377"/>
	<rect id="XMLID_54_" x="3616" y="480" class="st2" width="53" height="26"/>
	<rect id="XMLID_55_" x="3483" y="480" class="st2" width="53" height="26"/>
	<rect id="XMLID_56_" x="3268" y="480" class="st2" width="54" height="26"/>
	<rect id="XMLID_57_" x="3135.7" y="479" class="st2" width="52.3" height="28"/>
	<rect id="XMLID_58_" x="2950" y="480" class="st2" width="52.7" height="27"/>
	<rect id="XMLID_59_" x="2815.7" y="480" class="st2" width="54.3" height="29"/>
	<rect id="XMLID_60_" x="2629" y="480" class="st2" width="80" height="27"/>
	<rect id="XMLID_61_" x="2389" y="694" class="st2" width="80" height="29"/>
	<rect id="XMLID_62_" x="2629" y="693" class="st2" width="81" height="30"/>
	<rect id="XMLID_63_" x="2790" y="693" class="st2" width="80" height="30"/>
	<rect id="XMLID_64_" x="2950" y="693" class="st2" width="80" height="30"/>
	<rect id="XMLID_65_" x="3109" y="693" class="st2" width="79" height="30"/>
	<rect id="XMLID_66_" x="3268" y="693" class="st2" width="82" height="30"/>
	<rect id="XMLID_67_" x="3428" y="693" class="st2" width="82" height="30"/>
	<rect id="XMLID_68_" x="3590" y="693" class="st2" width="79" height="30"/>
	<rect id="XMLID_69_" x="3749.7" y="667.7" class="st2" width="29.3" height="25.3"/>
	<rect id="XMLID_70_" x="3857.7" y="640.3" class="st2" width="26" height="52.7"/>
	<rect id="XMLID_71_" x="3963.7" y="667.7" class="st2" width="27.3" height="25.3"/>
	<rect id="XMLID_72_" x="4070.3" y="560" class="st2" width="27.3" height="55"/>
	<rect id="XMLID_73_" x="4070.3" y="399" class="st2" width="27.3" height="80"/>
	<rect id="XMLID_74_" x="4070.3" y="242" class="st2" width="27.3" height="77.5"/>
	<rect id="XMLID_75_" x="4151" y="79.7" class="st2" width="25" height="79.3"/>
	<rect id="XMLID_76_" x="4336" y="159" class="st2" width="268" height="80"/>
</g>
</svg>
