<?xml version="1.0" encoding="utf-8"?>
<!-- Generator: Adobe Illustrator 19.0.0, SVG Export Plug-In . SVG Version: 6.00 Build 0)  -->
<svg version="1.1" xmlns="http://www.w3.org/2000/svg" xmlns:xlink="http://www.w3.org/1999/xlink" x="0px" y="0px"
	 viewBox="0 0 800 1280" style="enable-background:new 0 0 800 1280;" xml:space="preserve">
<style type="text/css">
	.st0{display:none;}
	.st1{fill:#009245;stroke:#009245;stroke-miterlimit:10;}
	.st2{fill:#F7931E;stroke:#F7931E;stroke-miterlimit:10;}
	.st3{fill:#662D91;stroke:#662D91;stroke-miterlimit:10;}
	.st4{fill:#FBB03B;stroke:#FBB03B;stroke-miterlimit:10;}
</style>
<g id="Capa_1" class="st0">
	
		<image style="display:inline;overflow:visible;" width="1440" height="1851" id="XMLID_1_" xlink:href="../../../../Descargas/decision-tree-for-gdp-per-capita-more-variables.jpg"  transform="matrix(-0.6049 0 0 -0.7978 867.7917 1367.0416)">
	</image>
</g>
<g id="Capa_2">
	<rect id="XMLID_2_" x="241" y="1214.8" class="st1" width="53.5" height="53.5"/>
	
		<rect id="XMLID_3_" x="259.4" y="1154.2" transform="matrix(0.9973 7.385939e-002 -7.385939e-002 0.9973 88.0073 -17.906)" class="st2" width="53.5" height="53.5"/>
	
		<rect id="XMLID_6_" x="332.7" y="1154.2" transform="matrix(0.9994 -3.567910e-002 3.567910e-002 0.9994 -41.9072 13.5777)" class="st1" width="53.5" height="53.5"/>
	
		<rect id="XMLID_7_" x="195.2" y="1154.2" transform="matrix(0.9947 -0.1026 0.1026 0.9947 -119.9906 28.9984)" class="st3" width="53.5" height="53.5"/>
	
		<rect id="XMLID_8_" x="241" y="1090" transform="matrix(0.9988 -4.873757e-002 4.873757e-002 0.9988 -54.1107 14.3773)" class="st3" width="53.5" height="53.5"/>
	
		<rect id="XMLID_9_" x="241" y="1021.2" transform="matrix(0.9988 4.858307e-002 -4.858307e-002 0.9988 51.2309 -11.7713)" class="st3" width="53.5" height="53.5"/>
	
		<rect id="XMLID_10_" x="241" y="947.9" transform="matrix(0.998 -6.318171e-002 6.318171e-002 0.998 -61.0434 18.8651)" class="st1" width="53.5" height="53.5"/>
	
		<rect id="XMLID_11_" x="241" y="869.9" transform="matrix(0.9491 0.315 -0.315 0.9491 296.1208 -38.6965)" class="st3" width="53.5" height="53.5"/>
	
		<rect id="XMLID_12_" x="378.6" y="613.1" transform="matrix(0.9913 0.1314 -0.1314 0.9913 87.6223 -47.7248)" class="st3" width="53.5" height="53.5"/>
	
		<rect id="XMLID_13_" x="516.1" y="700.3" transform="matrix(0.9979 6.484648e-002 -6.484648e-002 0.9979 48.2865 -33.6747)" class="st2" width="53.5" height="53.5"/>
	<rect id="XMLID_14_" x="286.9" y="608.5" class="st2" width="53.5" height="53.5"/>
	
		<rect id="XMLID_15_" x="241" y="528.3" transform="matrix(0.9849 -0.1733 0.1733 0.9849 -92.1414 54.8094)" class="st2" width="53.5" height="53.5"/>
	
		<rect id="XMLID_16_" x="423.7" y="411.4" transform="matrix(0.9907 -0.1361 0.1361 0.9907 -55.4448 65.3896)" class="st3" width="53.5" height="53.5"/>
	
		<rect id="XMLID_17_" x="415.3" y="305.9" transform="matrix(0.9895 -0.1443 0.1443 0.9895 -43.3742 67.2615)" class="st1" width="53.5" height="53.5"/>
	
		<rect id="XMLID_18_" x="369.4" y="195.9" transform="matrix(0.989 0.1478 -0.1478 0.989 37.2545 -56.1117)" class="st3" width="53.5" height="53.5"/>
	<rect id="XMLID_19_" x="369.4" y="3.3" class="st2" width="53.5" height="53.5"/>
	
		<rect id="XMLID_20_" x="149.3" y="1090" transform="matrix(0.9678 0.2517 -0.2517 0.9678 286.7914 -8.3555)" class="st1" width="53.5" height="53.5"/>
	
		<rect id="XMLID_21_" x="121.8" y="1021.2" transform="matrix(0.9944 -0.106 0.106 0.9944 -110.2224 21.6425)" class="st4" width="53.5" height="53.5"/>
	<rect id="XMLID_22_" x="140.1" y="942.9" class="st1" width="53.5" height="53.5"/>
	
		<rect id="XMLID_23_" x="75.9" y="947.9" transform="matrix(0.9985 5.483590e-002 -5.483590e-002 0.9985 53.5989 -4.1644)" class="st2" width="53.5" height="53.5"/>
	
		<rect id="XMLID_24_" x="66.8" y="865.9" transform="matrix(0.9954 9.601346e-002 -9.601346e-002 0.9954 86.1404 -4.8546)" class="st3" width="53.5" height="53.5"/>
	
		<rect id="XMLID_25_" x="149.3" y="869.9" transform="matrix(0.9964 8.466227e-002 -8.466227e-002 0.9964 76.5462 -11.6858)" class="st2" width="53.5" height="53.5"/>
	
		<rect id="XMLID_26_" x="48.4" y="787.4" transform="matrix(0.9921 -0.1256 0.1256 0.9921 -101.6871 15.8949)" class="st2" width="53.5" height="53.5"/>
	
		<rect id="XMLID_27_" x="121.8" y="791.4" transform="matrix(0.988 -0.1547 0.1547 0.988 -124.8085 32.8394)" class="st1" width="53.5" height="53.5"/>
	
		<rect id="XMLID_28_" x="85.1" y="700.3" transform="matrix(0.9537 0.3009 -0.3009 0.9537 223.9073 2.987212e-002)" class="st3" width="53.5" height="53.5"/>
	
		<rect id="XMLID_29_" x="378.6" y="1090" transform="matrix(0.9902 0.1398 -0.1398 0.9902 160.1382 -45.705)" class="st2" width="53.5" height="53.5"/>
	
		<rect id="XMLID_30_" x="424.4" y="1021.2" transform="matrix(0.9971 -7.552183e-002 7.552183e-002 0.9971 -77.8578 37.0672)" class="st1" width="53.5" height="53.5"/>
	
		<rect id="XMLID_31_" x="507" y="1029.2" transform="matrix(0.9995 -3.010313e-002 3.010313e-002 0.9995 -31.5468 16.5453)" class="st2" width="53.5" height="53.5"/>
	
		<rect id="XMLID_32_" x="387.8" y="943.9" transform="matrix(0.9959 -9.046900e-002 9.046900e-002 0.9959 -86.1117 41.4797)" class="st3" width="53.5" height="53.5"/>
	
		<rect id="XMLID_33_" x="470.3" y="947.9" transform="matrix(0.9919 0.1273 -0.1273 0.9919 128.1562 -55.3592)" class="st2" width="53.5" height="53.5"/>
	
		<rect id="XMLID_34_" x="562" y="949.9" transform="matrix(0.9926 -0.1213 0.1213 0.9926 -114.0997 78.6133)" class="st1" width="53.5" height="53.5"/>
	
		<rect id="XMLID_35_" x="314.4" y="893.3" transform="matrix(0.884 -0.4675 0.4675 0.884 -390.5043 266.1761)" class="st2" width="53.5" height="53.5"/>
	
		<rect id="XMLID_36_" x="396.9" y="869.9" transform="matrix(0.9968 8.013475e-002 -8.013475e-002 0.9968 73.217 -31.0672)" class="st1" width="53.5" height="53.5"/>
	
		<rect id="XMLID_37_" x="507" y="866.9" transform="matrix(0.9986 5.220092e-002 -5.220092e-002 0.9986 47.3781 -26.6424)" class="st2" width="53.5" height="53.5"/>
	
		<rect id="XMLID_38_" x="360.2" y="787.4" transform="matrix(0.9983 -5.804725e-002 5.804725e-002 0.9983 -46.6056 23.8363)" class="st2" width="53.5" height="53.5"/>
	
		<rect id="XMLID_39_" x="442.8" y="790.4" transform="matrix(0.993 0.1181 -0.1181 0.993 99.7968 -49.7359)" class="st1" width="53.5" height="53.5"/>
	
		<rect id="XMLID_40_" x="525.3" y="784.4" transform="matrix(0.9939 -0.1099 0.1099 0.9939 -85.7821 65.5706)" class="st3" width="53.5" height="53.5"/>
	
		<rect id="XMLID_41_" x="607.9" y="787.4" transform="matrix(0.9741 -0.2261 0.2261 0.9741 -167.6683 164.6001)" class="st3" width="53.5" height="53.5"/>
	
		<rect id="XMLID_42_" x="332.7" y="700.3" transform="matrix(0.9884 0.1521 -0.1521 0.9884 114.7949 -46.2284)" class="st1" width="53.5" height="53.5"/>
	
		<rect id="XMLID_43_" x="415.3" y="700.3" transform="matrix(0.9976 -6.930538e-002 6.930538e-002 0.9976 -49.3226 32.382)" class="st3" width="53.5" height="53.5"/>
	
		<rect id="XMLID_44_" x="314.4" y="512.3" transform="matrix(0.996 -8.940038e-002 8.940038e-002 0.996 -46.8209 32.6556)" class="st1" width="53.5" height="53.5"/>
	
		<rect id="XMLID_45_" x="479.5" y="603.1" transform="matrix(0.9886 -0.1509 0.1509 0.9886 -89.242 83.5885)" class="st1" width="53.5" height="53.5"/>
	
		<rect id="XMLID_46_" x="598.7" y="613.1" transform="matrix(0.99 0.1413 -0.1413 0.99 96.6551 -81.928)" class="st3" width="53.5" height="53.5"/>
	
		<rect id="XMLID_47_" x="674.8" y="512.3" transform="matrix(0.9374 0.3483 -0.3483 0.9374 231.6598 -210.5868)" class="st2" width="53.5" height="53.5"/>
	
		<rect id="XMLID_48_" x="592.2" y="492.3" transform="matrix(0.9477 -0.3192 0.3192 0.9477 -133.2942 224.7519)" class="st3" width="53.5" height="53.5"/>
	
		<rect id="XMLID_49_" x="518.9" y="512.3" transform="matrix(0.9685 0.2492 -0.2492 0.9685 151.5352 -118.9632)" class="st1" width="53.5" height="53.5"/>
	
		<rect id="XMLID_50_" x="427.1" y="512.3" transform="matrix(0.9938 0.1116 -0.1116 0.9938 62.9836 -47.2851)" class="st2" width="53.5" height="53.5"/>
	
		<rect id="XMLID_51_" x="524.6" y="371.4" transform="matrix(0.9965 8.407026e-002 -8.407026e-002 0.9965 35.4217 -44.9387)" class="st2" width="53.5" height="53.5"/>
	
		<rect id="XMLID_52_" x="516.1" y="265.9" transform="matrix(0.9509 -0.3095 0.3095 0.9509 -63.919 182.393)" class="st3" width="53.5" height="53.5"/>
</g>
</svg>
